<?xml version="1.0" encoding="utf-8"?>
<!-- Generator: Adobe Illustrator 23.0.1, SVG Export Plug-In . SVG Version: 6.00 Build 0)  -->
<svg version="1.1" id="图层_1" xmlns="http://www.w3.org/2000/svg" xmlns:xlink="http://www.w3.org/1999/xlink" x="0px" y="0px"
	 viewBox="0 0 1313.99 936.29" style="enable-background:new 0 0 1313.99 936.29;" xml:space="preserve">
<style type="text/css">
	.st0{fill:#A1735A;}
</style>
<g>
	<rect x="143.99" y="794.65" class="st0" width="20" height="115"/>
	<polygon class="st0" points="272.99,794.65 236.99,794.65 216.99,794.65 181.99,794.65 181.99,814.65 216.99,814.65 216.99,909.65 
		236.99,909.65 236.99,814.65 272.99,814.65 	"/>
	<path class="st0" d="M467.99,794.65h-51h-20v20v75v20h20h51h20v-20v-75v-20H467.99z M467.99,889.65h-51v-75h51V889.65z"/>
	<polygon class="st0" points="790.99,794.65 790.99,842.15 739.99,842.15 739.99,794.65 719.99,794.65 719.99,842.15 719.99,862.15 
		719.99,909.65 739.99,909.65 739.99,862.15 790.99,862.15 790.99,909.65 810.99,909.65 810.99,862.15 810.99,842.15 810.99,794.65 
			"/>
	<polygon class="st0" points="358.99,794.65 307.99,794.65 287.99,794.65 287.99,814.65 287.99,889.65 287.99,909.65 307.99,909.65 
		358.99,909.65 378.99,909.65 378.99,889.65 378.99,875.65 358.99,875.65 358.99,889.65 307.99,889.65 307.99,814.65 358.99,814.65 
		358.99,832.65 378.99,832.65 378.99,814.65 378.99,794.65 	"/>
	<polygon class="st0" points="683.99,794.65 632.99,794.65 612.99,794.65 612.99,814.65 612.99,889.65 612.99,909.65 632.99,909.65 
		683.99,909.65 703.99,909.65 703.99,889.65 703.99,875.65 683.99,875.65 683.99,889.65 632.99,889.65 632.99,814.65 683.99,814.65 
		683.99,832.65 703.99,832.65 703.99,814.65 703.99,794.65 	"/>
	<path class="st0" d="M113.99,851.65L113.99,851.65l4.15-3.19c5.58-4.29,8.85-10.93,8.85-17.98v-15.83v-20h-20h-51h-20v20v27v20v28
		v20h20h51h20v-20v-16.83c0-7.04-3.27-13.68-8.85-17.98L113.99,851.65z M55.99,814.65h51v10.73c0,8.99-7.28,16.27-16.27,16.27H55.99
		V814.65z M106.99,889.65h-51v-28h34.73c8.99,0,16.27,7.28,16.27,16.27C106.99,877.92,106.99,889.65,106.99,889.65z"/>
	<polygon class="st0" points="575.99,794.65 575.99,870.38 575.99,870.38 524.99,802.7 524.99,802.7 524.2,801.65 522.55,799.46 
		522.55,799.46 518.92,794.65 504.99,794.65 504.99,807.65 504.99,809.4 504.99,909.65 524.99,909.65 524.99,835.94 575.99,903.61 
		575.99,903.61 577.08,905.05 577.35,905.41 577.35,905.41 580.54,909.65 595.99,909.65 595.99,897.65 595.99,896.92 595.99,794.65 
			"/>
	<g>
		<polygon class="st0" points="875.99,807.65 963.99,807.65 963.99,876.65 977.99,876.65 977.99,794.65 973.99,794.65 
			963.99,794.65 875.99,794.65 861.99,794.65 861.99,807.65 861.99,876.65 875.99,876.65 		"/>
		<polygon class="st0" points="926.99,824.65 912.99,824.65 912.99,876.65 858.99,901.65 865.99,910.65 919.99,886.65 
			973.99,910.65 982.99,901.65 926.99,876.65 		"/>
		<polygon class="st0" points="1215.99,883.65 1215.99,843.65 1215.99,831.65 1201.99,831.65 1191.99,831.65 1191.99,843.65 
			1201.99,843.65 1201.99,883.65 1189.99,897.65 1193.99,910.65 1207.99,896.65 1218.99,910.65 1223.99,910.65 1276.99,910.65 
			1276.99,898.65 1227.63,898.65 		"/>
		<polygon class="st0" points="1218.99,813.65 1203.99,791.65 1196.99,802.65 1210.99,825.65 		"/>
		<polygon class="st0" points="1248.68,809.65 1277.99,809.65 1277.99,797.65 1252.93,797.65 1242.99,789.65 1239.86,797.65 
			1224.99,797.65 1224.99,809.65 1235.17,809.65 1224.99,835.65 1224.99,847.65 1244.99,847.65 1244.99,863.65 1223.99,863.65 
			1223.99,875.65 1244.99,875.65 1244.99,890.65 1258.99,890.65 1258.99,875.65 1276.99,875.65 1276.99,863.65 1258.99,863.65 
			1258.99,847.65 1276.99,847.65 1276.99,835.65 1261.99,835.65 1261.99,822.65 1248.99,822.65 1248.99,835.65 1239.46,835.65 		"/>
		<polygon class="st0" points="1173.99,885.71 1173.99,864.65 1190.99,864.65 1190.99,851.65 1173.99,851.65 1173.99,839.65 
			1183.99,839.65 1183.99,827.65 1163.42,827.65 1166.28,817.65 1189.99,817.65 1189.99,805.65 1169.71,805.65 1171.99,797.65 
			1158.99,790.65 1148.99,832.65 1159.99,839.65 1159.99,851.65 1150.99,851.65 1150.99,864.65 1159.99,864.65 1159.99,893.58 
			1150.99,898.65 1154.99,910.65 1185.99,892.65 1182.99,880.65 		"/>
		<path class="st0" d="M1097.99,876.65h13h9h5v-52h-5h-9h-37v-15h54v-12h-54v-5h-14v5h-53v12h53v15h-36h-5h-9v52h9h5h12.16
			l-33.16,33l17,2l35-35h28v34h46v-12h-31V876.65z M1023.99,863.65v-26h87v26H1023.99z"/>
	</g>
	<path class="st0" d="M656.99,26.65c-193.3,0-350,156.7-350,350s156.7,350,350,350s350-156.7,350-350S850.29,26.65,656.99,26.65z
		 M656.99,669.15c-161.54,0-292.5-130.96-292.5-292.5s130.96-292.5,292.5-292.5s292.5,130.96,292.5,292.5
		S818.54,669.15,656.99,669.15z"/>
	<polygon class="st0" points="475.62,198.65 837.99,198.65 837.99,554.65 475.62,554.65 475.62,496.65 779.99,496.65 779.99,406.15 
		551.49,406.15 551.49,347.15 779.99,347.15 779.99,255.15 475.62,255.15 	"/>
	<polygon class="st0" points="475.49,273.15 475.49,480.15 761.49,480.15 761.49,423.15 534.49,423.15 534.49,329.15 761.49,329.15 
		761.49,273.15 	"/>
</g>
</svg>
